<svg width="16" height="16" viewBox="0 0 16 16" fill="none" xmlns="http://www.w3.org/2000/svg">
<path d="M1.9613 3.54214H1.93834C1.69525 3.55733 1.45165 3.52218 1.22278 3.43887C0.993911 3.35556 0.784704 3.2259 0.608261 3.05801C0.431818 2.89011 0.291939 2.6876 0.197381 2.46314C0.102823 2.23868 0.0556238 1.99712 0.0587384 1.75358C0.061853 1.51004 0.115214 1.26977 0.215481 1.04781C0.315748 0.825844 0.460761 0.626971 0.64144 0.463642C0.822119 0.300313 1.03457 0.176045 1.2655 0.098619C1.49642 0.0211933 1.74085 -0.00772251 1.98347 0.013682C2.22655 -0.00329957 2.47053 0.0301143 2.7001 0.111829C2.92968 0.193545 3.13989 0.321799 3.31758 0.488555C3.49527 0.655311 3.6366 0.856972 3.73271 1.0809C3.82882 1.30483 3.87764 1.54619 3.87611 1.78987C3.87458 2.03355 3.82273 2.27428 3.72381 2.49698C3.6249 2.71969 3.48105 2.91956 3.30128 3.08407C3.12151 3.24858 2.90969 3.37418 2.67911 3.453C2.44853 3.53183 2.20416 3.56217 1.9613 3.54214ZM0.389048 5.91714H3.55572V15.4171H0.389048V5.91714ZM11.8682 5.91714C11.3346 5.91859 10.8083 6.0406 10.3285 6.27405C9.84866 6.50751 9.42782 6.84639 9.09738 7.26535V5.91714H5.93072V15.4171H9.09738V11.063C9.09738 10.643 9.2642 10.2403 9.56113 9.94339C9.85806 9.64646 10.2608 9.47964 10.6807 9.47964C11.1006 9.47964 11.5034 9.64646 11.8003 9.94339C12.0972 10.2403 12.264 10.643 12.264 11.063V15.4171H15.4307V9.47964C15.4307 8.53481 15.0554 7.62867 14.3873 6.96057C13.7192 6.29247 12.813 5.91714 11.8682 5.91714Z" fill="#1D2939"/>
</svg>
