<svg width="17" height="16" viewBox="0 0 17 16" fill="none" xmlns="http://www.w3.org/2000/svg">
<path d="M16.2351 3.76687L13.9937 6.00085C13.5484 11.1887 9.16951 15.2188 3.93709 15.2188C2.86092 15.2188 1.97029 15.0481 1.2949 14.7141C0.753103 14.4395 0.530447 14.1501 0.471072 14.061C0.421946 13.9864 0.390291 13.9017 0.378464 13.8131C0.366638 13.7246 0.374944 13.6345 0.402766 13.5496C0.430588 13.4647 0.477208 13.3872 0.539151 13.3228C0.601094 13.2584 0.676765 13.2089 0.760525 13.1778C0.775369 13.1704 2.52693 12.5024 3.66248 11.2184C2.95825 10.717 2.33927 10.1055 1.82927 9.40749C0.812478 8.02702 -0.263694 5.62976 0.382009 2.05241C0.402307 1.94606 0.45095 1.84717 0.5228 1.76617C0.59465 1.68518 0.68704 1.62509 0.790212 1.59226C0.893713 1.55837 1.00454 1.5536 1.11057 1.57847C1.2166 1.60334 1.31375 1.65689 1.39138 1.73327C1.41365 1.76296 3.88513 4.19734 6.90584 4.98405V4.53132C6.90875 4.06056 7.00436 3.59498 7.18721 3.16117C7.37006 2.72736 7.63657 2.33382 7.97151 2.00301C8.30646 1.6722 8.70329 1.4106 9.13933 1.23315C9.57538 1.05571 10.0421 0.965887 10.5129 0.96882C11.1307 0.977632 11.7358 1.14634 12.2691 1.4585C12.8023 1.77066 13.2457 2.21564 13.5558 2.75007H15.8121C15.9293 2.7497 16.044 2.78404 16.1418 2.84876C16.2395 2.91348 16.3159 3.00568 16.3613 3.11374C16.4041 3.22341 16.4149 3.34296 16.3926 3.45854C16.3703 3.57412 16.3157 3.68102 16.2351 3.76687Z" fill="#1D2939"/>
</svg>
