<svg width="25" height="24" viewBox="0 0 25 24" fill="none" xmlns="http://www.w3.org/2000/svg">
<path d="M4.75 6H21.1014C21.2113 6 21.3198 6.02413 21.4193 6.07068C21.5188 6.11724 21.6068 6.18508 21.6772 6.26941C21.7476 6.35374 21.7986 6.45251 21.8266 6.55872C21.8546 6.66494 21.859 6.77601 21.8393 6.88409L20.2039 15.8841C20.1725 16.0569 20.0814 16.2132 19.9466 16.3258C19.8117 16.4383 19.6417 16.5 19.466 16.5H7.29237C7.11679 16.5 6.94678 16.4384 6.81195 16.3259C6.67713 16.2135 6.58603 16.0573 6.55453 15.8845L4.18041 2.86545C4.14892 2.69273 4.05782 2.53652 3.92299 2.42406C3.78817 2.3116 3.61816 2.25 3.44258 2.25H1.75" stroke="#2C4CAC" stroke-width="2" stroke-linecap="round" stroke-linejoin="round"/>
<path d="M7.75 21.75C8.57843 21.75 9.25 21.0784 9.25 20.25C9.25 19.4216 8.57843 18.75 7.75 18.75C6.92157 18.75 6.25 19.4216 6.25 20.25C6.25 21.0784 6.92157 21.75 7.75 21.75Z" fill="#2C4CAC"/>
<path d="M19 21.75C19.8284 21.75 20.5 21.0784 20.5 20.25C20.5 19.4216 19.8284 18.75 19 18.75C18.1716 18.75 17.5 19.4216 17.5 20.25C17.5 21.0784 18.1716 21.75 19 21.75Z" fill="#2C4CAC"/>
</svg>
