<svg width="24" height="24" viewBox="0 0 24 24" fill="none" xmlns="http://www.w3.org/2000/svg">
<path d="M22.5005 5.68677C21.684 6.85569 20.6653 7.86941 19.4924 8.68017L19.4924 8.68016C19.4182 10.7305 18.8197 12.7277 17.754 14.481C16.6883 16.2342 15.191 17.6851 13.4051 18.695C11.6191 19.7049 9.60406 20.2402 7.55235 20.2497C5.50064 20.2593 3.48072 19.7428 1.68542 18.7495L1.68603 18.7484C4.03039 18.716 6.31331 17.9941 8.25011 16.6728L8.25004 16.6729C6.17677 15.2598 4.5977 13.2333 3.73421 10.8775C2.87072 8.52177 2.76611 5.95484 3.43505 3.53662L3.43501 3.53664C4.39311 5.01214 5.66394 6.25889 7.15749 7.18858C8.65104 8.11827 10.3308 8.70815 12.0777 8.91644L12.0774 8.91649C11.8934 8.03956 12.0295 7.12575 12.4609 6.34043C12.8923 5.55511 13.5906 4.95017 14.4294 4.6351C15.2682 4.32003 16.1921 4.31564 17.0338 4.62273C17.8756 4.92982 18.5796 5.52809 19.0185 6.30927L19.0185 6.30969C20.2035 6.27432 21.3768 6.06443 22.5005 5.68677" stroke="#2C4CAC" stroke-width="2" stroke-linecap="round" stroke-linejoin="round"/>
</svg>
