<svg width="20" height="20" viewBox="0 0 20 20" fill="none" xmlns="http://www.w3.org/2000/svg">
<path d="M13.3333 17.5V15.8333C13.3333 14.9493 12.9821 14.1014 12.357 13.4763C11.7319 12.8512 10.884 12.5 9.99999 12.5H4.16666C3.28261 12.5 2.43476 12.8512 1.80964 13.4763C1.18452 14.1014 0.833328 14.9493 0.833328 15.8333V17.5" stroke="url(#paint0_linear_477_20483)" stroke-width="1.66667" stroke-linecap="round" stroke-linejoin="round"/>
<path d="M7.08333 9.16667C8.92428 9.16667 10.4167 7.67428 10.4167 5.83333C10.4167 3.99238 8.92428 2.5 7.08333 2.5C5.24238 2.5 3.75 3.99238 3.75 5.83333C3.75 7.67428 5.24238 9.16667 7.08333 9.16667Z" stroke="url(#paint1_linear_477_20483)" stroke-width="1.66667" stroke-linecap="round" stroke-linejoin="round"/>
<path d="M14.1667 9.16667L15.8333 10.8333L19.1667 7.5" stroke="url(#paint2_linear_477_20483)" stroke-width="1.66667" stroke-linecap="round" stroke-linejoin="round"/>
<defs>
<linearGradient id="paint0_linear_477_20483" x1="0.833328" y1="12.5" x2="4.2816" y2="21.1207" gradientUnits="userSpaceOnUse">
<stop stop-color="#97ABFF"/>
<stop offset="1" stop-color="#123597"/>
</linearGradient>
<linearGradient id="paint1_linear_477_20483" x1="3.75" y1="2.5" x2="10.4167" y2="9.16667" gradientUnits="userSpaceOnUse">
<stop stop-color="#97ABFF"/>
<stop offset="1" stop-color="#123597"/>
</linearGradient>
<linearGradient id="paint2_linear_477_20483" x1="14.1667" y1="7.5" x2="17.2436" y2="12.1154" gradientUnits="userSpaceOnUse">
<stop stop-color="#97ABFF"/>
<stop offset="1" stop-color="#123597"/>
</linearGradient>
</defs>
</svg>
