<svg width="18" height="19" viewBox="0 0 18 19" fill="none" xmlns="http://www.w3.org/2000/svg">
<path d="M1.5 4.50008H3.16667M3.16667 4.50008H16.5M3.16667 4.50008V16.1667C3.16667 16.6088 3.34226 17.0327 3.65482 17.3453C3.96738 17.6578 4.39131 17.8334 4.83333 17.8334H13.1667C13.6087 17.8334 14.0326 17.6578 14.3452 17.3453C14.6577 17.0327 14.8333 16.6088 14.8333 16.1667V4.50008H3.16667ZM5.66667 4.50008V2.83341C5.66667 2.39139 5.84226 1.96746 6.15482 1.6549C6.46738 1.34234 6.89131 1.16675 7.33333 1.16675H10.6667C11.1087 1.16675 11.5326 1.34234 11.8452 1.6549C12.1577 1.96746 12.3333 2.39139 12.3333 2.83341V4.50008M7.33333 8.66675V13.6667M10.6667 8.66675V13.6667" stroke="#667085" stroke-width="1.66667" stroke-linecap="round" stroke-linejoin="round"/>
</svg>
