<svg width="20" height="20" viewBox="0 0 20 20" fill="none" xmlns="http://www.w3.org/2000/svg">
<g clip-path="url(#clip0_477_20467)">
<path d="M10 18.3333C14.6024 18.3333 18.3333 14.6024 18.3333 10C18.3333 5.39763 14.6024 1.66667 10 1.66667C5.39763 1.66667 1.66667 5.39763 1.66667 10C1.66667 14.6024 5.39763 18.3333 10 18.3333Z" stroke="url(#paint0_linear_477_20467)" stroke-width="1.66667" stroke-linecap="round" stroke-linejoin="round"/>
<path d="M7.575 7.5C7.77092 6.94306 8.15762 6.47342 8.66663 6.17428C9.17563 5.87513 9.77408 5.76578 10.356 5.86559C10.9379 5.96541 11.4657 6.26794 11.8459 6.71961C12.2261 7.17128 12.4342 7.74294 12.4333 8.33333C12.4333 10 9.93333 10.8333 9.93333 10.8333" stroke="url(#paint1_linear_477_20467)" stroke-width="1.66667" stroke-linecap="round" stroke-linejoin="round"/>
<path d="M10 14.1667H10.0083" stroke="url(#paint2_linear_477_20467)" stroke-width="1.66667" stroke-linecap="round" stroke-linejoin="round"/>
</g>
<defs>
<linearGradient id="paint0_linear_477_20467" x1="1.66667" y1="1.66667" x2="18.3333" y2="18.3333" gradientUnits="userSpaceOnUse">
<stop stop-color="#97ABFF"/>
<stop offset="1" stop-color="#123597"/>
</linearGradient>
<linearGradient id="paint1_linear_477_20467" x1="7.575" y1="5.82961" x2="12.5766" y2="10.6858" gradientUnits="userSpaceOnUse">
<stop stop-color="#97ABFF"/>
<stop offset="1" stop-color="#123597"/>
</linearGradient>
<linearGradient id="paint2_linear_477_20467" x1="10" y1="14.1667" x2="10.0167" y2="14.1668" gradientUnits="userSpaceOnUse">
<stop stop-color="#97ABFF"/>
<stop offset="1" stop-color="#123597"/>
</linearGradient>
<clipPath id="clip0_477_20467">
<rect width="20" height="20" fill="white"/>
</clipPath>
</defs>
</svg>
