<svg width="27" height="11" viewBox="0 0 27 11" fill="none" xmlns="http://www.w3.org/2000/svg">
<path d="M6.36754 3.14453C6.32446 2.74136 6.14287 2.42744 5.8228 2.20277C5.5058 1.9781 5.0934 1.86577 4.58558 1.86577C4.22858 1.86577 3.92235 1.91963 3.6669 2.02734C3.41146 2.13506 3.21603 2.28125 3.08061 2.46591C2.94519 2.65057 2.87595 2.86139 2.87287 3.09837C2.87287 3.29534 2.9175 3.46615 3.00675 3.6108C3.09908 3.75544 3.22372 3.87855 3.38068 3.98011C3.53764 4.0786 3.71153 4.16169 3.90234 4.2294C4.09316 4.29711 4.28551 4.35405 4.4794 4.40021L5.36577 4.6218C5.72277 4.7049 6.06593 4.81723 6.39524 4.95881C6.72763 5.10038 7.02462 5.27888 7.28622 5.49432C7.5509 5.70975 7.76018 5.96982 7.91406 6.2745C8.06795 6.57919 8.14489 6.9362 8.14489 7.34553C8.14489 7.8995 8.00331 8.38731 7.72017 8.80895C7.43703 9.22751 7.0277 9.55528 6.49219 9.79226C5.95975 10.0262 5.31499 10.1431 4.55788 10.1431C3.82232 10.1431 3.18371 10.0292 2.64205 9.80149C2.10346 9.57375 1.68182 9.24136 1.37713 8.80433C1.07552 8.36731 0.912405 7.83487 0.887784 7.20703H2.5728C2.59742 7.53634 2.69898 7.81025 2.87749 8.02876C3.05599 8.24728 3.28835 8.41039 3.57457 8.51811C3.86387 8.62583 4.18703 8.67969 4.54403 8.67969C4.91643 8.67969 5.24266 8.62429 5.52273 8.51349C5.80587 8.39962 6.02746 8.24266 6.1875 8.04261C6.34754 7.83949 6.4291 7.60251 6.43217 7.33168C6.4291 7.08546 6.35677 6.88234 6.2152 6.7223C6.07363 6.55919 5.87512 6.42377 5.61967 6.31605C5.36731 6.20526 5.07185 6.10677 4.73331 6.0206L3.65767 5.74361C2.87902 5.54356 2.26349 5.24041 1.81108 4.83416C1.36174 4.42483 1.13707 3.88163 1.13707 3.20454C1.13707 2.64749 1.28788 2.15968 1.58949 1.74112C1.89418 1.32256 2.30812 0.997869 2.83132 0.767045C3.35452 0.533144 3.94697 0.416193 4.60867 0.416193C5.27959 0.416193 5.86742 0.533144 6.37216 0.767045C6.87997 0.997869 7.27853 1.31948 7.56783 1.73189C7.85713 2.14122 8.00639 2.6121 8.01562 3.14453H6.36754ZM9.67179 10V0.545454H15.8209V1.98118H11.3845V4.54794H15.5024V5.98366H11.3845V8.56428H15.8579V10H9.67179ZM26.0164 5.27273C26.0164 6.29143 25.8256 7.16394 25.444 7.89027C25.0654 8.61352 24.5484 9.1675 23.8928 9.5522C23.2404 9.93691 22.5002 10.1293 21.6723 10.1293C20.8444 10.1293 20.1027 9.93691 19.4472 9.5522C18.7947 9.16442 18.2777 8.6089 17.896 7.88565C17.5175 7.15933 17.3282 6.28835 17.3282 5.27273C17.3282 4.25402 17.5175 3.38305 17.896 2.6598C18.2777 1.93348 18.7947 1.37796 19.4472 0.993252C20.1027 0.608546 20.8444 0.416193 21.6723 0.416193C22.5002 0.416193 23.2404 0.608546 23.8928 0.993252C24.5484 1.37796 25.0654 1.93348 25.444 2.6598C25.8256 3.38305 26.0164 4.25402 26.0164 5.27273ZM24.2945 5.27273C24.2945 4.55563 24.1821 3.95088 23.9575 3.45845C23.7359 2.96295 23.4281 2.58902 23.0342 2.33665C22.6402 2.0812 22.1863 1.95348 21.6723 1.95348C21.1584 1.95348 20.7044 2.0812 20.3105 2.33665C19.9165 2.58902 19.6072 2.96295 19.3825 3.45845C19.161 3.95088 19.0502 4.55563 19.0502 5.27273C19.0502 5.98982 19.161 6.59612 19.3825 7.09162C19.6072 7.58404 19.9165 7.95798 20.3105 8.21342C20.7044 8.46579 21.1584 8.59197 21.6723 8.59197C22.1863 8.59197 22.6402 8.46579 23.0342 8.21342C23.4281 7.95798 23.7359 7.58404 23.9575 7.09162C24.1821 6.59612 24.2945 5.98982 24.2945 5.27273Z" fill="url(#paint0_linear_237_16795)"/>
<defs>
<linearGradient id="paint0_linear_237_16795" x1="0" y1="-5" x2="19.132" y2="20.8282" gradientUnits="userSpaceOnUse">
<stop stop-color="#97ABFF"/>
<stop offset="1" stop-color="#123597"/>
</linearGradient>
</defs>
</svg>
